<?xml version="1.0" encoding="UTF-8"?>
<svg width="70px" height="70px" viewBox="0 0 70 70" version="1.1" xmlns="http://www.w3.org/2000/svg" xmlns:xlink="http://www.w3.org/1999/xlink">
    <title>Artboard</title>
    <g id="Artboard" stroke="none" stroke-width="1" fill="none" fill-rule="evenodd">
        <g id="Group-2" transform="translate(15.000000, 16.000000)" fill-rule="nonzero">
            <path d="M37.7964696,19.5219269 C34.7022081,16.4179066 29.6830074,16.3923505 26.5572978,19.4647007 C23.4315883,22.5370509 23.3707261,27.5559477 26.421013,30.7031918 L31.1891396,37.1596622 C31.4149402,37.465476 31.771935,37.6466509 32.1520733,37.648351 L32.1520733,37.648351 C32.5309363,37.648351 32.8876892,37.4699746 33.115007,37.1668842 L38.0693008,30.5065929 C40.914997,27.3546082 40.7918728,22.5256006 37.7892476,19.5227293 L37.7964696,19.5219269 Z" id="Path" fill="#FFAC00"></path>
            <path d="M36.2597879,28.9257767 C36.2314234,28.956213 36.20464,28.9880853 36.1795434,29.0212677 L32.156888,34.4225232 L28.3051532,29.2066324 C28.2708807,29.1604034 28.233337,29.1166918 28.192811,29.0758339 C26.056648,26.9134359 26.0493496,23.4374855 28.176413,21.266136 C30.3034764,19.0947865 33.7788393,19.0304664 35.9847909,21.1216227 C38.1907425,23.2127791 38.3120671,26.6866192 36.2573806,28.9265792 L36.2597879,28.9257767 Z" id="Path" fill="#FFAC00"></path>
            <path d="M28.2529943,24.9761437 C28.2529943,27.1322047 30.0008271,28.8800374 32.156888,28.8800374 C34.3129489,28.8800374 36.0607816,27.1322047 36.0607816,24.9761437 C36.0581288,22.8211826 34.3118491,21.0749029 32.156888,21.0722501 C30.0008271,21.0722501 28.2529943,22.8200828 28.2529943,24.9761437 Z" id="Path" fill="#FFFFFF"></path>
            <path d="M32.156888,26.4735056 C31.330361,26.4735056 30.6603285,25.8034731 30.6603285,24.9769462 C30.6603285,24.1504192 31.330361,23.4803868 32.156888,23.4803868 C32.9834149,23.4803868 33.6534474,24.1504192 33.6534474,24.9769462 C33.6525629,25.8031065 32.9830483,26.4726211 32.156888,26.4735056 L32.156888,26.4735056 Z" id="Path" fill="#FFAC00"></path>
            <path d="M22.5660685,29.8678469 L15.1940087,32.5496172 L15.1940087,7.28865684 L24.8233455,3.58216459 L24.8233455,16.3410359 C24.8233455,17.0058029 25.3622456,17.544703 26.0270126,17.544703 C26.6917796,17.544703 27.2306797,17.0058029 27.2306797,16.3410359 L27.2306797,3.58216459 L36.8600166,7.28865684 L36.8600166,16.3113455 C36.8600166,16.9761124 37.3989167,17.5150125 38.0636837,17.5150125 C38.7284507,17.5150125 39.2673508,16.9761124 39.2673508,16.3113455 L39.2673508,6.46213876 C39.2673508,5.96420771 38.9608753,5.51763934 38.4962014,5.33871612 L26.4595303,0.705400207 L26.4290374,0.694968426 C26.4081739,0.687746423 26.3873103,0.68052442 26.3656443,0.674104862 L26.3174976,0.661265747 C26.2966341,0.656451078 26.2765729,0.650833965 26.2557094,0.646821741 C26.2348458,0.642809518 26.2155871,0.640402183 26.1947236,0.637192404 L26.1385524,0.63478507 C26.10164,0.631040328 26.06446,0.629167957 26.0270126,0.629167957 L26.0189882,0.629167957 C25.9815408,0.629167957 25.9443608,0.631040328 25.9074484,0.63478507 L25.8552895,0.642007073 C25.8352283,0.642007073 25.8143648,0.647624186 25.7943037,0.65163641 C25.7742425,0.655648633 25.753379,0.661265747 25.7325154,0.666080415 L25.6843687,0.678919531 C25.6627027,0.685339089 25.6418392,0.692561091 25.6209756,0.699783094 L25.5904827,0.710214876 L13.9903416,5.17261006 L2.38618821,0.705400207 C2.01600884,0.562862199 1.59936868,0.611860222 1.27235746,0.836389754 C0.945346234,1.06091929 0.750001692,1.43214936 0.750001692,1.82882284 L0.750001692,29.633533 C0.749172081,30.130259 1.05355788,30.576479 1.51633811,30.7569556 L13.4727647,35.4215669 C13.7451962,35.5277929 14.0469805,35.5312158 14.3217512,35.4311962 L23.3893768,32.1323459 C23.7967613,31.9877132 24.0952979,31.6357245 24.171492,31.210195 C24.247686,30.7846656 24.089834,30.3509573 23.7579465,30.0739527 C23.4260591,29.7969482 22.9711143,29.7191956 22.5660685,29.8702542 L22.5660685,29.8678469 Z" id="Path" fill="#005757"></path>
            <polygon id="Path" fill="#FFFFFF" points="3.1573376 3.58216459 12.7866745 7.28865684 12.7866745 32.5720856 3.1573376 28.8142369"></polygon>
        </g>
    </g>
</svg>