<?xml version="1.0" encoding="UTF-8"?>
<svg width="370px" height="370px" viewBox="0 0 370 370" version="1.1" xmlns="http://www.w3.org/2000/svg" xmlns:xlink="http://www.w3.org/1999/xlink">
    <title>Desktop</title>
    <g id="Desktop" stroke="none" stroke-width="1" fill="none" fill-rule="evenodd">
        <g id="Group-6" transform="translate(45.000000, 75.000000)" fill-rule="nonzero">
            <g id="Group" transform="translate(72.000000, 88.000000)">
                <path d="M31.541473,124.245769 C35.1460572,124.245769 38.078455,121.319539 38.078455,117.722154 C38.078455,114.124769 35.1460572,111.198539 31.541473,111.198539 C27.9522973,111.198539 25.0322347,114.124769 25.0322347,117.722154 C25.0322347,121.319539 27.9522973,124.245769 31.541473,124.245769 Z M31.541473,115.408518 C32.8242115,115.408518 33.8684758,116.446615 33.8684758,117.722154 C33.8684758,118.997694 32.8242115,120.03579 31.541473,120.03579 C30.274164,120.03579 29.2422139,118.997694 29.2422139,117.722154 C29.2422139,116.446615 30.274164,115.408518 31.541473,115.408518 Z" id="Shape" fill="#FFFFFF"></path>
                <path d="M103.430783,124.245769 C107.035367,124.245769 109.967765,121.319539 109.967765,117.722154 C109.967765,114.124769 107.035367,111.198539 103.430783,111.198539 C99.8416076,111.198539 96.921545,114.124769 96.921545,117.722154 C96.921545,121.319539 99.8416076,124.245769 103.430783,124.245769 Z M103.430783,115.408518 C104.713522,115.408518 105.757786,116.446615 105.757786,117.722154 C105.757786,118.997694 104.713522,120.03579 103.430783,120.03579 C102.163474,120.03579 101.131524,118.997694 101.131524,117.722154 C101.131524,116.446615 102.163474,115.408518 103.430783,115.408518 Z" id="Shape" fill="#FFFFFF"></path>
                <path d="M110.745812,38.2176861 C120.433079,38.2176861 128.314455,30.3363103 128.314455,20.6490429 C128.314455,10.960744 120.433079,3.07936824 110.745812,3.07936824 C101.044146,3.07936824 93.1514665,10.960744 93.1514665,20.6490429 C93.1514665,30.3363103 101.044167,38.2176861 110.745812,38.2176861 Z M110.745812,7.28934745 C118.112244,7.28934745 124.104476,13.2826107 124.104476,20.6490429 C124.104476,28.0154751 118.112244,34.0077069 110.745812,34.0077069 C103.366013,34.0077069 97.3614457,28.0154751 97.3614457,20.6490429 C97.3614457,13.2826107 103.366013,7.28934745 110.745812,7.28934745 Z" id="Shape" stroke="#FFAC00" stroke-width="3" fill="#FFAC00"></path>
                <path d="M12.1679696,19.1124426 L25.3837679,19.1124426 C29.4570491,19.1124426 32.7717973,15.7976944 32.7717973,11.7244132 C32.7717973,7.78989293 29.6934605,4.56252287 25.8226583,4.334342 C24.4237874,1.77711642 21.7031305,0.100723753 18.7203812,0.100723753 C15.7242653,0.100723753 12.9810008,1.78328404 11.5749309,4.34461435 C7.76885707,4.6478381 4.7645317,7.84129678 4.7645317,11.7244132 C4.7645317,15.7976944 8.08542646,19.1124426 12.1679696,19.1124426 Z M12.1679696,8.53095452 C12.3036362,8.53095452 12.4321247,8.53402781 12.5595819,8.55768789 C13.6038462,8.75092594 14.6491419,8.12496518 14.9605751,7.09610941 C15.454953,5.45569101 17.0008152,4.31070296 18.7203602,4.31070296 C20.4563662,4.31070296 21.9528664,5.43617775 22.444171,7.11254938 C22.7525099,8.16811746 23.8194028,8.80641346 24.8996414,8.58029548 C25.0579366,8.5463841 25.2110746,8.53095452 25.3837469,8.53095452 C27.1361928,8.53095452 28.561797,9.96373675 28.561797,11.7244132 C28.561797,13.4768591 27.1361928,14.9024634 25.3837469,14.9024634 L12.1679696,14.9024634 C10.4072931,14.9024634 8.97451091,13.4768591 8.97451091,11.7244132 C8.97451091,9.9637578 10.4072931,8.53095452 12.1679696,8.53095452 Z" id="Shape" fill="#FFFFFF"></path>
                <path d="M56.3614475,28.9682775 L69.5772458,28.9682775 C73.650527,28.9682775 76.9652752,25.6535294 76.9652752,21.5802482 C76.9652752,17.6457279 73.8869384,14.4173264 70.0161362,14.190177 C68.6172653,11.6329514 65.8966084,9.95655873 62.9138591,9.95655873 C59.9177432,9.95655873 57.1755101,11.639119 55.7694402,14.2004493 C51.9633875,14.5026206 48.9580307,17.6971107 48.9580307,21.5802482 C48.9580307,25.6535294 52.2789044,28.9682775 56.3614475,28.9682775 Z M56.3614475,18.3867895 C56.4950722,18.3867895 56.6204665,18.3898628 56.7458607,18.4135229 C57.8106907,18.6160018 58.8457141,17.9859363 59.1550845,16.9519444 C59.6494623,15.3125574 61.1942931,14.1665379 62.9138381,14.1665379 C64.6498441,14.1665379 66.1463443,15.2930442 66.6376489,16.9694158 C66.9470192,18.0249839 68.0211112,18.6643113 69.0931193,18.4371619 C69.2544878,18.4022191 69.4076258,18.3867895 69.5772248,18.3867895 C71.3296707,18.3867895 72.7552749,19.8195717 72.7552749,21.5802482 C72.7552749,23.3326941 71.3296707,24.7582983 69.5772248,24.7582983 L56.3614475,24.7582983 C54.600771,24.7582983 53.1679888,23.3326941 53.1679888,21.5802482 C53.1679888,19.8195928 54.600771,18.3867895 56.3614475,18.3867895 Z" id="Shape" fill="#FFFFFF"></path>
                <path d="M2.24532225,132.513621 L132.754678,132.513621 C133.917158,132.513621 134.859667,131.571112 134.859667,130.408632 C134.859667,129.246151 133.917158,128.303642 132.754678,128.303642 L111.497419,128.303642 C114.160652,126.272538 116.031672,123.269602 116.582085,119.82407 L128.668051,119.82407 C129.830531,119.82407 130.773041,118.881561 130.773041,117.719081 C130.773041,117.278401 130.773041,99.9524423 130.773041,100.964479 C130.773041,94.559059 125.561949,89.3479888 119.15655,89.3479888 C118.882417,89.3479888 104.69344,89.3479888 105.089831,89.3479888 L81.3705343,65.66273 C79.6900369,63.9842955 77.4555483,63.0602682 75.080236,63.0602682 L70.5906931,63.0602682 L70.5906931,59.0990146 L75.4389472,59.0990146 C81.0971383,59.0990146 85.7007716,54.4953812 85.7007716,48.8371902 C85.7007716,43.1789992 81.0971383,38.5753659 75.4389472,38.5753659 L20.1490377,38.5753659 C14.4207084,38.5753659 9.88721336,43.2343394 9.88721336,48.8371902 C9.88721336,54.4953812 14.4908467,59.0990146 20.1490377,59.0990146 L24.9983233,59.0990146 L24.9983233,63.0602682 L19.9342235,63.0602682 C16.0880917,63.0602682 12.6911227,65.5126653 11.483427,69.1634961 C4.13031939,91.489058 4.21051949,90.8572032 4.21051949,91.4529574 L4.21051949,108.207559 C4.21051949,114.612979 9.43085161,119.824049 15.8475756,119.824049 L18.4165049,119.824049 C18.9657599,123.269581 20.8329278,126.272517 23.4907508,128.303621 L2.24532225,128.303621 C1.08284174,128.303621 0.14033264,129.24613 0.14033264,130.408611 C0.14033264,131.571091 1.08284174,132.513621 2.24532225,132.513621 Z M103.427689,108.615611 C108.458909,108.615611 112.551703,112.699165 112.551703,117.719081 C112.551703,117.723059 112.554019,117.72628 112.554019,117.730258 C112.549388,122.750427 108.459161,126.832823 103.430762,126.832823 C98.4149719,126.832823 94.3334602,122.746175 94.3334602,117.722154 C94.3334602,112.549984 98.6858209,108.615611 103.427689,108.615611 Z M116.595178,115.614091 C115.55967,109.176675 109.919898,104.401527 103.430762,104.401527 C96.8201055,104.401527 91.2741104,109.355852 90.2807448,115.614091 L62.5849335,115.614091 L62.5849335,93.557947 L115.945599,93.557947 L115.945599,103.747823 C115.945599,104.910303 116.888108,105.852812 118.050589,105.852812 L126.563061,105.852812 L126.563061,115.614091 L116.595178,115.614091 Z M126.56304,101.642833 L120.155557,101.642833 L120.155557,93.6589233 C120.242914,93.6708797 120.334018,93.670606 120.420344,93.6856567 C124.6058,94.410994 126.427732,97.4634394 126.56304,101.642833 Z M78.3959945,68.6413745 L99.1231536,89.3387269 L62.5849335,89.3387269 L62.5849335,67.2702474 C62.8732118,67.2702474 75.5702354,67.2702474 75.080236,67.2702474 C76.3321154,67.2702474 77.5100044,67.7574262 78.3959945,68.6413745 Z M20.1490377,42.7853451 L75.4389262,42.7853451 C78.0332838,42.7853451 80.2328295,44.4340993 81.0918547,46.7322006 L14.4932885,46.7322006 C15.3880774,44.3391011 17.6032633,42.7853451 20.1490377,42.7853451 Z M14.4961302,50.9421798 L81.0918547,50.9421798 C80.2328506,53.2402812 78.0333048,54.8890353 75.4389262,54.8890353 C61.518672,54.8890353 34.0565988,54.8890353 20.1490377,54.8890353 C17.5546801,54.8890353 15.3551344,53.2402812 14.4961302,50.9421798 Z M29.2083025,59.0990146 L66.3806928,59.0990146 L66.3806928,63.0602682 C53.3694995,63.0602682 43.8044688,63.0602682 29.2083025,63.0602682 L29.2083025,59.0990146 Z M15.4796234,70.4873451 C16.1168669,68.5632583 17.9063186,67.2702474 19.9342235,67.2702474 C33.0103137,67.2702474 34.9148451,67.2702474 58.3749543,67.2702474 L58.3749543,89.3387269 L9.23763462,89.3387269 L15.4796234,70.4873451 Z M8.4204987,108.207559 L8.4204987,107.082084 L14.7961123,107.082084 C15.9585928,107.082084 16.9011019,106.139575 16.9011019,104.977095 C16.9011019,103.814614 15.9585928,102.872105 14.7961123,102.872105 L8.4204987,102.872105 L8.4204987,99.5203511 L14.7961123,99.5203511 C15.9585928,99.5203511 16.9011019,98.577842 16.9011019,97.4153615 C16.9011019,96.252881 15.9585928,95.3103719 14.7961123,95.3103719 L8.4204987,95.3103719 L8.4204987,93.557947 L58.3749543,93.557947 L58.3749543,115.614091 L44.7027942,115.614091 C43.6904415,109.23191 38.0787076,104.401527 31.541473,104.401527 C25.0476011,104.401527 19.4430452,109.176044 18.4078955,115.614091 L15.8475756,115.614091 C11.7527183,115.614091 8.4204987,112.291113 8.4204987,108.207559 Z M22.4513701,117.719081 C22.4513701,112.699165 26.5267141,108.615611 31.5363368,108.615611 C36.5665252,108.615611 40.6593196,112.699165 40.6593196,117.719081 C40.6593196,117.726659 40.663698,117.732826 40.663698,117.740404 C40.6534257,122.755816 36.5663989,126.832823 31.541473,126.832823 C26.5331344,126.832823 22.4584428,122.757626 22.4463602,117.743878 C22.4463602,117.735142 22.4513701,117.727817 22.4513701,117.719081 Z M44.6927744,119.82407 C61.6851136,119.82407 73.3316632,119.82407 90.3058152,119.82407 C90.8550702,123.269602 92.722238,126.272538 95.3800611,128.303642 L39.6081089,128.303642 C42.2713417,126.272517 44.1423828,123.269602 44.6927744,119.82407 Z" id="Shape" fill="#FFFFFF"></path>
            </g>
            <path d="M8.424,19.604 L10.53,10.088 C10.842,8.58 11.102,7.098 11.362,5.642 L11.466,5.642 C11.7,7.098 11.986,8.58 12.298,10.088 L14.456,19.604 L19.24,19.604 L22.802,0.364 L19.136,0.364 L17.628,9.75 C17.342,11.752 17.056,13.806 16.77,15.886 L16.64,15.886 C16.224,13.806 15.834,11.726 15.418,9.75 L13.182,0.364 L9.906,0.364 L7.67,9.75 C7.254,11.752 6.838,13.832 6.448,15.886 L6.344,15.886 C6.058,13.832 5.746,11.778 5.46,9.75 L3.926,0.364 L0,0.364 L3.718,19.604 L8.424,19.604 Z M29.536,19.604 L29.536,11.284 L36.816,11.284 L36.816,19.604 L40.638,19.604 L40.638,0.364 L36.816,0.364 L36.816,7.93 L29.536,7.93 L29.536,0.364 L25.688,0.364 L25.688,19.604 L29.536,19.604 Z M57.46,19.604 L57.46,16.38 L49.218,16.38 L49.218,11.232 L55.978,11.232 L55.978,8.008 L49.218,8.008 L49.218,3.562 L57.174,3.562 L57.174,0.364 L45.37,0.364 L45.37,19.604 L57.46,19.604 Z M65.208,19.604 L65.208,12.324 L67.886,12.324 L71.838,19.604 L76.128,19.604 L71.63,11.726 C73.84,10.868 75.296,9.074 75.296,6.188 C75.296,1.768 72.098,0.364 68.068,0.364 L61.36,0.364 L61.36,19.604 L65.208,19.604 Z M67.704,9.282 L65.208,9.282 L65.208,3.406 L67.704,3.406 C70.174,3.406 71.526,4.108 71.526,6.188 C71.526,8.242 70.174,9.282 67.704,9.282 Z M91.182,19.604 L91.182,16.38 L82.94,16.38 L82.94,11.232 L89.7,11.232 L89.7,8.008 L82.94,8.008 L82.94,3.562 L90.896,3.562 L90.896,0.364 L79.092,0.364 L79.092,19.604 L91.182,19.604 Z M106.47,19.604 C112.138,19.604 115.778,16.38 115.778,9.906 C115.778,3.406 112.138,0.364 106.262,0.364 L100.984,0.364 L100.984,19.604 L106.47,19.604 Z M106.028,16.51 L104.832,16.51 L104.832,3.432 L106.028,3.432 C109.616,3.432 111.852,5.2 111.852,9.906 C111.852,14.586 109.616,16.51 106.028,16.51 Z M127.192,19.968 C132.288,19.968 135.798,16.146 135.798,9.906 C135.798,3.666 132.288,0 127.192,0 C122.096,0 118.586,3.64 118.586,9.906 C118.586,16.146 122.096,19.968 127.192,19.968 Z M127.192,16.64 C124.332,16.64 122.512,14.014 122.512,9.906 C122.512,5.772 124.332,3.302 127.192,3.302 C130.052,3.302 131.872,5.772 131.872,9.906 C131.872,14.014 130.052,16.64 127.192,16.64 Z M152.568,19.604 L152.568,12.558 L158.366,0.364 L154.362,0.364 L152.438,5.044 C151.892,6.474 151.32,7.826 150.722,9.308 L150.618,9.308 C150.02,7.826 149.5,6.474 148.954,5.044 L147.03,0.364 L142.948,0.364 L148.72,12.558 L148.72,19.604 L152.568,19.604 Z M168.22,19.968 C173.316,19.968 176.826,16.146 176.826,9.906 C176.826,3.666 173.316,0 168.22,0 C163.124,0 159.614,3.64 159.614,9.906 C159.614,16.146 163.124,19.968 168.22,19.968 Z M168.22,16.64 C165.36,16.64 163.54,14.014 163.54,9.906 C163.54,5.772 165.36,3.302 168.22,3.302 C171.08,3.302 172.9,5.772 172.9,9.906 C172.9,14.014 171.08,16.64 168.22,16.64 Z M187.98,19.968 C192.686,19.968 195.416,17.342 195.416,10.946 L195.416,0.364 L191.724,0.364 L191.724,11.284 C191.724,15.288 190.268,16.64 187.98,16.64 C185.718,16.64 184.34,15.288 184.34,11.284 L184.34,0.364 L180.492,0.364 L180.492,10.946 C180.492,17.342 183.3,19.968 187.98,19.968 Z M212.472,19.604 L214.578,10.088 C214.89,8.58 215.15,7.098 215.41,5.642 L215.514,5.642 C215.748,7.098 216.034,8.58 216.346,10.088 L218.504,19.604 L223.288,19.604 L226.85,0.364 L223.184,0.364 L221.676,9.75 C221.39,11.752 221.104,13.806 220.818,15.886 L220.688,15.886 C220.272,13.806 219.882,11.726 219.466,9.75 L217.23,0.364 L213.954,0.364 L211.718,9.75 C211.302,11.752 210.886,13.832 210.496,15.886 L210.392,15.886 C210.106,13.832 209.794,11.778 209.508,9.75 L207.974,0.364 L204.048,0.364 L207.766,19.604 L212.472,19.604 Z M231.166,19.604 L232.518,14.664 L238.758,14.664 L240.11,19.604 L244.14,19.604 L237.952,0.364 L233.428,0.364 L227.266,19.604 L231.166,19.604 Z M237.926,11.674 L233.35,11.674 L233.922,9.568 C234.494,7.566 235.066,5.382 235.56,3.276 L235.664,3.276 C236.236,5.356 236.756,7.566 237.354,9.568 L237.926,11.674 Z M250.042,19.604 L250.042,11.882 C250.042,9.672 249.756,7.254 249.574,5.174 L249.704,5.174 L251.654,9.308 L257.218,19.604 L261.118,19.604 L261.118,0.364 L257.478,0.364 L257.478,8.034 C257.478,10.218 257.764,12.766 257.972,14.768 L257.842,14.768 L255.918,10.608 L250.328,0.364 L246.402,0.364 L246.402,19.604 L250.042,19.604 Z M273.546,19.604 L273.546,3.562 L279.006,3.562 L279.006,0.364 L264.29,0.364 L264.29,3.562 L269.698,3.562 L269.698,19.604 L273.546,19.604 Z M56.329,53.604 L56.329,37.562 L61.789,37.562 L61.789,34.364 L47.073,34.364 L47.073,37.562 L52.481,37.562 L52.481,53.604 L56.329,53.604 Z M72.553,53.968 C77.649,53.968 81.159,50.146 81.159,43.906 C81.159,37.666 77.649,34 72.553,34 C67.457,34 63.947,37.64 63.947,43.906 C63.947,50.146 67.457,53.968 72.553,53.968 Z M72.553,50.64 C69.693,50.64 67.873,48.014 67.873,43.906 C67.873,39.772 69.693,37.302 72.553,37.302 C75.413,37.302 77.233,39.772 77.233,43.906 C77.233,48.014 75.413,50.64 72.553,50.64 Z M99.099,53.968 C101.777,53.968 104.039,52.928 105.339,51.654 L105.339,42.97 L98.501,42.97 L98.501,46.116 L101.907,46.116 L101.907,49.912 C101.361,50.38 100.425,50.64 99.489,50.64 C95.719,50.64 93.795,48.118 93.795,43.932 C93.795,39.798 96.031,37.302 99.229,37.302 C100.971,37.302 102.063,38.004 102.999,38.914 L105.053,36.47 C103.805,35.196 101.881,34 99.099,34 C93.977,34 89.869,37.718 89.869,44.062 C89.869,50.484 93.847,53.968 99.099,53.968 Z M117.117,53.968 C122.213,53.968 125.723,50.146 125.723,43.906 C125.723,37.666 122.213,34 117.117,34 C112.021,34 108.511,37.64 108.511,43.906 C108.511,50.146 112.021,53.968 117.117,53.968 Z M117.117,50.64 C114.257,50.64 112.437,48.014 112.437,43.906 C112.437,39.772 114.257,37.302 117.117,37.302 C119.977,37.302 121.797,39.772 121.797,43.906 C121.797,48.014 119.977,50.64 117.117,50.64 Z M143.065,53.604 L143.065,37.562 L148.525,37.562 L148.525,34.364 L133.809,34.364 L133.809,37.562 L139.217,37.562 L139.217,53.604 L143.065,53.604 Z M159.289,53.968 C164.385,53.968 167.895,50.146 167.895,43.906 C167.895,37.666 164.385,34 159.289,34 C154.193,34 150.683,37.64 150.683,43.906 C150.683,50.146 154.193,53.968 159.289,53.968 Z M159.289,50.64 C156.429,50.64 154.609,48.014 154.609,43.906 C154.609,39.772 156.429,37.302 159.289,37.302 C162.149,37.302 163.969,39.772 163.969,43.906 C163.969,48.014 162.149,50.64 159.289,50.64 Z M177.151,53.604 C182.819,53.604 186.459,50.38 186.459,43.906 C186.459,37.406 182.819,34.364 176.943,34.364 L171.665,34.364 L171.665,53.604 L177.151,53.604 Z M176.709,50.51 L175.513,50.51 L175.513,37.432 L176.709,37.432 C180.297,37.432 182.533,39.2 182.533,43.906 C182.533,48.586 180.297,50.51 176.709,50.51 Z M191.659,53.604 L193.011,48.664 L199.251,48.664 L200.603,53.604 L204.633,53.604 L198.445,34.364 L193.921,34.364 L187.759,53.604 L191.659,53.604 Z M198.419,45.674 L193.843,45.674 L194.415,43.568 C194.987,41.566 195.559,39.382 196.053,37.276 L196.157,37.276 C196.729,39.356 197.249,41.566 197.847,43.568 L198.419,45.674 Z M213.993,53.604 L213.993,46.558 L219.791,34.364 L215.787,34.364 L213.863,39.044 C213.317,40.474 212.745,41.826 212.147,43.308 L212.043,43.308 C211.445,41.826 210.925,40.474 210.379,39.044 L208.455,34.364 L204.373,34.364 L210.145,46.558 L210.145,53.604 L213.993,53.604 Z M227.565,47.052 C227.175,43.386 231.699,42.138 231.699,38.446 C231.699,35.118 229.411,33.506 226.291,33.506 C224.029,33.506 222.183,34.572 220.831,36.106 L222.937,38.03 C223.769,37.172 224.679,36.574 225.823,36.574 C227.175,36.574 228.033,37.406 228.033,38.706 C228.033,41.202 223.613,42.866 224.237,47.052 L227.565,47.052 Z M225.901,53.968 C227.279,53.968 228.293,52.876 228.293,51.472 C228.293,50.068 227.279,48.976 225.901,48.976 C224.549,48.976 223.535,50.068 223.535,51.472 C223.535,52.876 224.549,53.968 225.901,53.968 Z" id="WHEREDOYOUWANTTOGOTODAY?" fill="#FFFFFF"></path>
        </g>
    </g>
</svg>