<?xml version="1.0" encoding="UTF-8"?>
<svg width="370px" height="370px" viewBox="0 0 370 370" version="1.1" xmlns="http://www.w3.org/2000/svg" xmlns:xlink="http://www.w3.org/1999/xlink">
    <title>Desktop</title>
    <g id="Desktop" stroke="none" stroke-width="1" fill="none" fill-rule="evenodd">
        <g id="Group-6" transform="translate(69.000000, 83.000000)" fill-rule="nonzero">
            <g id="noun_City_3095187" transform="translate(42.000000, 56.000000)">
                <path d="M147.148148,108.353226 L142.670428,108.353226 L142.670428,21.2999131 C142.670428,20.6452546 142.32411,20.0376157 141.759874,19.7048611 L108.813549,0.256799815 C108.766642,0.228995 108.71431,0.217579074 108.665708,0.19429537 C108.614167,0.169542222 108.564209,0.148632037 108.510295,0.128626111 C108.09616,-0.0248659259 107.648343,-0.0248659259 107.234208,0.128626111 C107.180293,0.148632037 107.130335,0.169542222 107.078794,0.19429537 C107.030192,0.217579074 106.97786,0.228995 106.930954,0.256799815 L74.9259259,19.1492152 L42.9208985,0.256799815 C42.8739919,0.228995 42.8216598,0.217579074 42.7730578,0.19429537 C42.721517,0.169542222 42.6715585,0.148632037 42.6176443,0.128626111 C42.2035094,-0.0248659259 41.7556922,-0.0248659259 41.3415574,0.128626111 C41.287643,0.148632037 41.2376846,0.169542222 41.1861439,0.19429537 C41.1375419,0.217579074 41.0852098,0.228995 41.0383031,0.256799815 L8.09197778,19.7048611 C7.52774167,20.0376157 7.1814237,20.6452546 7.1814237,21.2999131 L7.1814237,108.353226 L2.7037037,108.353226 C1.68102574,108.353226 0.851851852,109.181496 0.851851852,110.205078 C0.851851852,111.22866 1.68102574,112.05693 2.7037037,112.05693 L147.148148,112.05693 C148.170826,112.05693 149,111.22866 149,110.205078 C149,109.181496 148.170826,108.353226 147.148148,108.353226 Z M138.966724,108.353226 L109.724103,108.353226 L109.724103,5.09530519 L138.966724,22.3578557 L138.966724,108.353226 L138.966724,108.353226 Z M106.020399,108.353226 L76.7777778,108.353226 L76.7777778,22.3578559 L106.020399,5.09530537 L106.020399,108.353226 Z M73.0740741,108.353226 L43.8314526,108.353226 L43.8314526,5.09530519 L73.0740741,22.3578559 L73.0740741,108.353226 Z M10.8851274,22.3578559 L40.1277489,5.09530537 L40.1277489,108.353226 L10.8851274,108.353226 L10.8851274,22.3578559 Z" id="Shape" stroke="#005757" fill="#005757"></path>
                <path d="M20.5033637,30.4235387 L30.3557943,30.4235387 C31.3784722,30.4235387 32.2076461,29.5952691 32.2076461,28.5716869 C32.2076461,27.5481046 31.3784722,26.719835 30.3557943,26.719835 L20.5033637,26.719835 C19.4806857,26.719835 18.6515119,27.5481046 18.6515119,28.5716869 C18.6515119,29.5952691 19.4806857,30.4235387 20.5033637,30.4235387 Z" id="Path" stroke="#FFAC00" fill="#FFAC00"></path>
                <path d="M30.3557943,40.4622396 L20.5033637,40.4622396 C19.4806857,40.4622396 18.6515119,41.2905093 18.6515119,42.3140915 C18.6515119,43.3376737 19.4806857,44.1659433 20.5033637,44.1659433 L30.3557943,44.1659433 C31.3784722,44.1659433 32.2076461,43.3376737 32.2076461,42.3140915 C32.2076461,41.2905093 31.3784722,40.4622396 30.3557943,40.4622396 Z" id="Path" stroke="#FFAC00" fill="#FFAC00"></path>
                <path d="M30.3557943,54.2064526 L20.5033637,54.2064526 C19.4806857,54.2064526 18.6515119,55.0347222 18.6515119,56.0583044 C18.6515119,57.0818867 19.4806857,57.9101563 20.5033637,57.9101563 L30.3557943,57.9101563 C31.3784722,57.9101563 32.2076461,57.0818867 32.2076461,56.0583044 C32.2076461,55.0347222 31.3784722,54.2064526 30.3557943,54.2064526 Z" id="Path" stroke="#FFAC00" fill="#FFAC00"></path>
                <path d="M30.3557943,67.948857 L20.5033637,67.948857 C19.4806857,67.948857 18.6515119,68.7771267 18.6515119,69.8007089 C18.6515119,70.8242911 19.4806857,71.6525607 20.5033637,71.6525607 L30.3557943,71.6525607 C31.3784722,71.6525607 32.2076461,70.8242911 32.2076461,69.8007089 C32.2076461,68.7771267 31.3784722,67.948857 30.3557943,67.948857 Z" id="Path" stroke="#FFAC00" fill="#FFAC00"></path>
                <path d="M53.603407,30.4235387 L63.4567419,30.4235387 C64.4794198,30.4235387 65.3085937,29.5952691 65.3085937,28.5716869 C65.3085937,27.5481046 64.4794198,26.719835 63.4567419,26.719835 L53.603407,26.719835 C52.5807291,26.719835 51.7515552,27.5481046 51.7515552,28.5716869 C51.7515552,29.5952691 52.5807293,30.4235387 53.603407,30.4235387 Z" id="Path" stroke="#FFAC00" fill="#FFAC00"></path>
                <path d="M53.603407,44.1659433 L63.4567419,44.1659433 C64.4794198,44.1659433 65.3085937,43.3376737 65.3085937,42.3140915 C65.3085937,41.2905093 64.4794198,40.4622396 63.4567419,40.4622396 L53.603407,40.4622396 C52.5807291,40.4622396 51.7515552,41.2905093 51.7515552,42.3140915 C51.7515552,43.3376737 52.5807293,44.1659433 53.603407,44.1659433 Z" id="Path" stroke="#FFAC00" fill="#FFAC00"></path>
                <path d="M53.603407,57.9101563 L63.4567419,57.9101563 C64.4794198,57.9101563 65.3085937,57.0818867 65.3085937,56.0583044 C65.3085937,55.0347222 64.4794198,54.2064526 63.4567419,54.2064526 L53.603407,54.2064526 C52.5807291,54.2064526 51.7515552,55.0347222 51.7515552,56.0583044 C51.7515552,57.0818867 52.5807293,57.9101563 53.603407,57.9101563 Z" id="Path" stroke="#FFAC00" fill="#FFAC00"></path>
                <path d="M63.4567419,67.948857 L53.603407,67.948857 C52.5807291,67.948857 51.7515552,68.7771267 51.7515552,69.8007089 C51.7515552,70.8242911 52.5807291,71.6525607 53.603407,71.6525607 L63.4567419,71.6525607 C64.4794198,71.6525607 65.3085937,70.8242911 65.3085937,69.8007089 C65.3085937,68.7771267 64.4794198,67.948857 63.4567419,67.948857 Z" id="Path" stroke="#FFAC00" fill="#FFAC00"></path>
                <path d="M86.39511,30.4235387 L96.2484448,30.4235387 C97.2711228,30.4235387 98.1002967,29.5952691 98.1002967,28.5716869 C98.1002967,27.5481046 97.2711228,26.719835 96.2484448,26.719835 L86.39511,26.719835 C85.372432,26.719835 84.5432581,27.5481046 84.5432581,28.5716869 C84.5432581,29.5952691 85.372432,30.4235387 86.39511,30.4235387 Z" id="Path" stroke="#FFAC00" fill="#FFAC00"></path>
                <path d="M86.39511,44.1659433 L96.2484448,44.1659433 C97.2711228,44.1659433 98.1002967,43.3376737 98.1002967,42.3140915 C98.1002967,41.2905093 97.2711228,40.4622396 96.2484448,40.4622396 L86.39511,40.4622396 C85.372432,40.4622396 84.5432581,41.2905093 84.5432581,42.3140915 C84.5432581,43.3376737 85.372432,44.1659433 86.39511,44.1659433 Z" id="Path" stroke="#FFAC00" fill="#FFAC00"></path>
                <path d="M86.39511,57.9101563 L96.2484448,57.9101563 C97.2711228,57.9101563 98.1002967,57.0818867 98.1002967,56.0583044 C98.1002967,55.0347222 97.2711228,54.2064526 96.2484448,54.2064526 L86.39511,54.2064526 C85.372432,54.2064526 84.5432581,55.0347222 84.5432581,56.0583044 C84.5432581,57.0818867 85.372432,57.9101563 86.39511,57.9101563 Z" id="Path" stroke="#FFAC00" fill="#FFAC00"></path>
                <path d="M86.39511,71.6525607 L96.2484448,71.6525607 C97.2711228,71.6525607 98.1002967,70.8242911 98.1002967,69.8007089 C98.1002967,68.7771267 97.2711228,67.948857 96.2484448,67.948857 L86.39511,67.948857 C85.372432,67.948857 84.5432581,68.7771267 84.5432581,69.8007089 C84.5432581,70.8242911 85.372432,71.6525607 86.39511,71.6525607 Z" id="Path" stroke="#FFAC00" fill="#FFAC00"></path>
                <path d="M119.496058,30.4235387 L129.348488,30.4235387 C130.371166,30.4235387 131.20034,29.5952691 131.20034,28.5716869 C131.20034,27.5481046 130.371166,26.719835 129.348488,26.719835 L119.496058,26.719835 C118.47338,26.719835 117.644206,27.5481046 117.644206,28.5716869 C117.644206,29.5952691 118.47338,30.4235387 119.496058,30.4235387 Z" id="Path" stroke="#FFAC00" fill="#FFAC00"></path>
                <path d="M119.496058,44.1659433 L129.348488,44.1659433 C130.371166,44.1659433 131.20034,43.3376737 131.20034,42.3140915 C131.20034,41.2905093 130.371166,40.4622396 129.348488,40.4622396 L119.496058,40.4622396 C118.47338,40.4622396 117.644206,41.2905093 117.644206,42.3140915 C117.644206,43.3376737 118.47338,44.1659433 119.496058,44.1659433 Z" id="Path" stroke="#FFAC00" fill="#FFAC00"></path>
                <path d="M119.496058,57.9101563 L129.348488,57.9101563 C130.371166,57.9101563 131.20034,57.0818867 131.20034,56.0583044 C131.20034,55.0347222 130.371166,54.2064526 129.348488,54.2064526 L119.496058,54.2064526 C118.47338,54.2064526 117.644206,55.0347222 117.644206,56.0583044 C117.644206,57.0818867 118.47338,57.9101563 119.496058,57.9101563 Z" id="Path" stroke="#FFAC00" fill="#FFAC00"></path>
                <path d="M129.348488,67.948857 L119.496058,67.948857 C118.47338,67.948857 117.644206,68.7771267 117.644206,69.8007089 C117.644206,70.8242911 118.47338,71.6525607 119.496058,71.6525607 L129.348488,71.6525607 C130.371166,71.6525607 131.20034,70.8242911 131.20034,69.8007089 C131.20034,68.7771267 130.371166,67.948857 129.348488,67.948857 Z" id="Path" stroke="#FFAC00" fill="#FFAC00"></path>
                <path d="M1.24157259,142.003038 C4.5401837,146.155237 9.45645259,148.536965 14.7307943,148.536965 C19.279948,148.536965 23.5623554,146.766493 26.7696398,143.614366 C29.9778285,146.764685 34.2611402,148.536965 38.8093894,148.536965 C43.3576387,148.536965 47.6400463,146.764685 50.848235,143.614366 C54.0555194,146.766493 58.3379269,148.536965 62.8870806,148.536965 C67.43533,148.536965 71.7177374,146.764685 74.9259261,143.614366 C78.1332106,146.766493 82.415618,148.536965 86.9647717,148.536965 C91.5139254,148.536965 95.7954285,146.766493 99.0018087,143.614366 C102.209997,146.766493 106.493309,148.536965 111.041558,148.536965 C115.589808,148.536965 119.872215,146.764685 123.080404,143.614366 C126.287688,146.766493 130.570096,148.536965 135.119249,148.536965 C140.393591,148.536965 145.30986,146.155237 148.608471,142.003038 C149.244141,141.201895 149.110316,140.037254 148.310077,139.40068 C147.50803,138.767723 146.345197,138.897931 145.707719,139.699074 C143.116211,142.961516 139.256981,144.833261 135.11925,144.833261 C130.980614,144.833261 127.121384,142.961516 124.53078,139.699074 C124.179037,139.257813 123.645545,138.999204 123.080404,138.999204 C122.515264,138.999204 121.981771,139.257812 121.630028,139.699074 C119.038521,142.961516 115.17929,144.833261 111.041559,144.833261 C106.902923,144.833261 103.043693,142.961516 100.453994,139.699074 C100.103155,139.257813 99.568758,138.999204 99.0036176,138.999204 C98.4384772,138.999204 97.9049841,139.257813 97.5532407,139.699074 C94.9617331,142.961516 91.102503,144.833261 86.9647715,144.833261 C82.8261357,144.833261 78.9669054,142.961516 76.3763022,139.699074 C76.0245587,139.257813 75.4910663,138.999204 74.9259259,138.999204 C74.3607856,138.999204 73.8272931,139.257812 73.4755498,139.699074 C70.8840422,142.961516 67.024812,144.833261 62.8870806,144.833261 C58.7484448,144.833261 54.8892144,142.961516 52.2986113,139.699074 C51.946868,139.257813 51.4133756,138.999204 50.8482352,138.999204 C50.2830948,138.999204 49.7496024,139.257812 49.3978591,139.699074 C46.8063515,142.961516 42.9471213,144.833261 38.8093898,144.833261 C34.6707541,144.833261 30.8115237,142.961516 28.2200163,139.699074 C27.5165296,138.816551 26.0227507,138.816551 25.3192641,139.699074 C22.7286607,142.961516 18.8694304,144.833261 14.7307948,144.833261 C10.5930633,144.833261 6.73383296,142.961516 4.14232556,139.699074 C3.50484722,138.897931 2.34020611,138.767723 1.53996741,139.40068 C0.739727963,140.037254 0.605902778,141.201895 1.24157259,142.003038 Z" id="Path" stroke="#005757" fill="#005757"></path>
                <path d="M14.7307943,129.700159 C19.279948,129.700159 23.5623554,127.929687 26.7696398,124.777561 C29.9778285,127.927879 34.2611402,129.700159 38.8093894,129.700159 C43.3576387,129.700159 47.6400463,127.927879 50.848235,124.777561 C54.0555194,127.929687 58.3379269,129.700159 62.8870806,129.700159 C67.43533,129.700159 71.7177374,127.927879 74.9259261,124.777561 C78.1332106,127.929687 82.415618,129.700159 86.9647717,129.700159 C91.5139254,129.700159 95.7954285,127.929687 99.0018087,124.777561 C102.209997,127.929687 106.493309,129.700159 111.041558,129.700159 C115.589808,129.700159 119.872215,127.927879 123.080404,124.777561 C126.287688,127.929687 130.570096,129.700159 135.119249,129.700159 C140.393591,129.700159 145.30986,127.318432 148.608471,123.166233 C149.244141,122.36509 149.110316,121.200449 148.310077,120.563874 C147.50803,119.929109 146.345197,120.061126 145.707719,120.862269 C143.116211,124.124711 139.256981,125.996455 135.11925,125.996455 C130.980614,125.996455 127.121384,124.124711 124.53078,120.862269 C124.179037,120.421007 123.645545,120.162399 123.080404,120.162399 C122.515264,120.162399 121.981771,120.421007 121.630028,120.862269 C119.038521,124.124711 115.17929,125.996455 111.041559,125.996455 C106.902923,125.996455 103.043693,124.124711 100.453994,120.862269 C100.103155,120.421007 99.568758,120.162399 99.0036176,120.162399 C98.4384772,120.162399 97.9049848,120.421007 97.5532415,120.862269 C94.9617339,124.124711 91.1025037,125.996455 86.9647722,125.996455 C82.8261365,125.996455 78.9669061,124.124711 76.376303,120.862269 C76.0245587,120.421007 75.4910663,120.162399 74.9259259,120.162399 C74.3607856,120.162399 73.8272931,120.421007 73.4755498,120.862269 C70.8840422,124.124711 67.024812,125.996455 62.8870806,125.996455 C58.7484448,125.996455 54.8892144,124.124711 52.2986113,120.862269 C51.946868,120.421007 51.4133756,120.162399 50.8482352,120.162399 C50.2830948,120.162399 49.7496024,120.421007 49.3978591,120.862269 C46.8063515,124.124711 42.9471213,125.996455 38.8093898,125.996455 C34.6707541,125.996455 30.8115237,124.124711 28.2200163,120.862269 C27.5165296,119.979745 26.0227507,119.979745 25.3192641,120.862269 C22.7286607,124.124711 18.8694304,125.996455 14.7307948,125.996455 C10.5930633,125.996455 6.73383296,124.124711 4.14232556,120.862269 C3.50484722,120.061126 2.34020611,119.929109 1.53996741,120.563874 C0.739728704,121.200449 0.605903519,122.36509 1.24157333,123.166233 C4.5401837,127.318432 9.45645259,129.700159 14.7307943,129.700159 Z" id="Path" stroke="#005757" fill="#005757"></path>
            </g>
            <path d="M3.9,19.604 L5.252,14.664 L11.492,14.664 L12.844,19.604 L16.874,19.604 L10.686,0.364 L6.162,0.364 L0,19.604 L3.9,19.604 Z M10.66,11.674 L6.084,11.674 L6.656,9.568 C7.228,7.566 7.8,5.382 8.294,3.276 L8.398,3.276 C8.97,5.356 9.49,7.566 10.088,9.568 L10.66,11.674 Z M22.984,19.604 L22.984,12.324 L25.662,12.324 L29.614,19.604 L33.904,19.604 L29.406,11.726 C31.616,10.868 33.072,9.074 33.072,6.188 C33.072,1.768 29.874,0.364 25.844,0.364 L19.136,0.364 L19.136,19.604 L22.984,19.604 Z M25.48,9.282 L22.984,9.282 L22.984,3.406 L25.48,3.406 C27.95,3.406 29.302,4.108 29.302,6.188 C29.302,8.242 27.95,9.282 25.48,9.282 Z M44.512,19.968 C49.608,19.968 53.118,16.146 53.118,9.906 C53.118,3.666 49.608,0 44.512,0 C39.416,0 35.906,3.64 35.906,9.906 C35.906,16.146 39.416,19.968 44.512,19.968 Z M44.512,16.64 C41.652,16.64 39.832,14.014 39.832,9.906 C39.832,5.772 41.652,3.302 44.512,3.302 C47.372,3.302 49.192,5.772 49.192,9.906 C49.192,14.014 47.372,16.64 44.512,16.64 Z M64.272,19.968 C68.978,19.968 71.708,17.342 71.708,10.946 L71.708,0.364 L68.016,0.364 L68.016,11.284 C68.016,15.288 66.56,16.64 64.272,16.64 C62.01,16.64 60.632,15.288 60.632,11.284 L60.632,0.364 L56.784,0.364 L56.784,10.946 C56.784,17.342 59.592,19.968 64.272,19.968 Z M79.976,19.604 L79.976,11.882 C79.976,9.672 79.69,7.254 79.508,5.174 L79.638,5.174 L81.588,9.308 L87.152,19.604 L91.052,19.604 L91.052,0.364 L87.412,0.364 L87.412,8.034 C87.412,10.218 87.698,12.766 87.906,14.768 L87.776,14.768 L85.852,10.608 L80.262,0.364 L76.336,0.364 L76.336,19.604 L79.976,19.604 Z M101.296,19.604 C106.964,19.604 110.604,16.38 110.604,9.906 C110.604,3.406 106.964,0.364 101.088,0.364 L95.81,0.364 L95.81,19.604 L101.296,19.604 Z M100.854,16.51 L99.658,16.51 L99.658,3.432 L100.854,3.432 C104.442,3.432 106.678,5.2 106.678,9.906 C106.678,14.586 104.442,16.51 100.854,16.51 Z M127.946,19.604 L127.946,3.562 L133.406,3.562 L133.406,0.364 L118.69,0.364 L118.69,3.562 L124.098,3.562 L124.098,19.604 L127.946,19.604 Z M140.374,19.604 L140.374,11.284 L147.654,11.284 L147.654,19.604 L151.476,19.604 L151.476,0.364 L147.654,0.364 L147.654,7.93 L140.374,7.93 L140.374,0.364 L136.526,0.364 L136.526,19.604 L140.374,19.604 Z M168.298,19.604 L168.298,16.38 L160.056,16.38 L160.056,11.232 L166.816,11.232 L166.816,8.008 L160.056,8.008 L160.056,3.562 L168.012,3.562 L168.012,0.364 L156.208,0.364 L156.208,19.604 L168.298,19.604 Z M185.952,19.968 C188.448,19.968 190.502,18.98 192.088,17.134 L190.06,14.742 C189.02,15.86 187.72,16.64 186.082,16.64 C183.04,16.64 181.064,14.118 181.064,9.932 C181.064,5.798 183.248,3.302 186.16,3.302 C187.616,3.302 188.734,3.978 189.696,4.914 L191.724,2.47 C190.476,1.17 188.526,0 186.082,0 C181.22,0 177.138,3.718 177.138,10.062 C177.138,16.484 181.09,19.968 185.952,19.968 Z M199.03,19.604 L199.03,0.364 L195.182,0.364 L195.182,19.604 L199.03,19.604 Z M211.432,19.604 L211.432,3.562 L216.892,3.562 L216.892,0.364 L202.176,0.364 L202.176,3.562 L207.584,3.562 L207.584,19.604 L211.432,19.604 Z M227.11,19.604 L227.11,12.558 L232.908,0.364 L228.904,0.364 L226.98,5.044 C226.434,6.474 225.862,7.826 225.264,9.308 L225.16,9.308 C224.562,7.826 224.042,6.474 223.496,5.044 L221.572,0.364 L217.49,0.364 L223.262,12.558 L223.262,19.604 L227.11,19.604 Z" id="AROUNDTHECITY" fill="#005757"></path>
        </g>
    </g>
</svg>