<svg id="圖層_1" data-name="圖層 1" xmlns="http://www.w3.org/2000/svg" viewBox="0 0 310.94 216.43"><defs><style>.cls-1,.cls-12,.cls-8,.cls-9{fill:#9bd6ea;}.cls-1{stroke:#f8fcfe;}.cls-1,.cls-10,.cls-13,.cls-2,.cls-3,.cls-7,.cls-8,.cls-9{stroke-miterlimit:10;}.cls-2{fill:#fbfbf0;stroke:#f7f9f7;}.cls-11,.cls-3{fill:#fff;}.cls-10,.cls-3{stroke:#231815;}.cls-4{fill:#a7d5c6;}.cls-13,.cls-5{fill:none;}.cls-6{opacity:0.88;font-size:36px;fill:#e8e282;font-family:ArialMT, Arial;}.cls-14,.cls-7{fill:#98d0e2;}.cls-7,.cls-8{stroke:#fff;}.cls-9{stroke:#f8fafa;}.cls-10{fill:#6dc08f;}.cls-13{stroke:#9bd6ea;}.cls-15{fill:#96cada;}</style></defs><text x="-193.92" y="-171.95"/><path class="cls-1" d="M195,292.12s13.36,94.65,115.16,95" transform="translate(-193.92 -171.95)"/><circle class="cls-2" cx="302.77" cy="280.16" r="107.71" transform="translate(-303.34 124.2) rotate(-45)"/><path class="cls-3" d="M295.85,232.72" transform="translate(-193.92 -171.95)"/><path class="cls-4" d="M272.25,183.1l-13.09,29.81a1.37,1.37,0,0,0,1.35,1.91c8.32-.65,16.59-2,24.89-3.15a1.36,1.36,0,0,0,1.05-1.89L274.74,183.1A1.36,1.36,0,0,0,272.25,183.1Z" transform="translate(-193.92 -171.95)"/><path class="cls-5" d="M306.53,247.86l-14.51-33c-9.64,1.32-19.23,3-28.91,3.55L247.93,253A316.11,316.11,0,0,1,306.53,247.86Z" transform="translate(-193.92 -171.95)"/><path id="小山" class="cls-4" d="M392,331.76c-2.25,5.22-4.83,8.92-4,9.48s3.26-5.25,6.27-9.43c.43-.61.58-.85.58-.85-11.1-24.33-21.07-46.82-32.17-71.15a1.77,1.77,0,0,0-3.33.13l-26,69a1.94,1.94,0,0,0,2.13,2.69,62.07,62.07,0,0,1,13.51-2,1.68,1.68,0,0,1,.79.17c7.71,3.62,13.36,3.46,17.17,2.57,4-.92,5-2.42,8.14-2,6.88,1,9.47,9.43,13.08,8.5C389.32,338.61,390.9,337.27,392,331.76Z" transform="translate(-193.92 -171.95)"/><path class="cls-4" d="M299,251.12A315.15,315.15,0,0,0,244,256a3,3,0,0,0-2.25,1.75L220.17,306.8a3,3,0,0,0,1.85,4.05,74.43,74.43,0,0,1,13.63,5.82,3.57,3.57,0,0,0,.45.19c.64.21,1.28.44,1.91.66a1.91,1.91,0,0,0,.41.11c14.56,2.77,27.65,10,38.75,20.22a61.9,61.9,0,0,1,15.2,22.27,3,3,0,0,0,3.95,1.59,76.13,76.13,0,0,1,15.56-4.95,3.39,3.39,0,0,0,.61-.21,75.49,75.49,0,0,1,27.33-7,2.78,2.78,0,0,0,.76-.16l0,0a3,3,0,0,0,1.72-4l-40.58-92.42A3,3,0,0,0,299,251.12Z" transform="translate(-193.92 -171.95)"/><text class="cls-6" transform="translate(25.19 73.28)">KEELUNG</text><path class="cls-7" d="M291.81,386c-3.17-22,7.84-43.23,30.07-55.46,24.11-13.25,54.08-10.8,76.5,3.67" transform="translate(-193.92 -171.95)"/><path class="cls-7" d="M297.91,386.64C296.52,361,315.19,340,341.46,332.88c28.3-7.63,50.59,5.89,53,7.4" transform="translate(-193.92 -171.95)"/><path class="cls-7" d="M390.73,344.87c-1.45-.74-25-12.1-51.6-.54-19.2,8.34-31.38,24-30.9,42.31" transform="translate(-193.92 -171.95)"/><path class="cls-7" d="M319,385.87c1.59-15.83,13.23-29.35,29.82-35.17a54.21,54.21,0,0,1,36.75.51s-27.68,30-66,35.07" transform="translate(-193.92 -171.95)"/><path class="cls-8" d="M310.72,387.06a93.07,93.07,0,0,0-30-68.41c-37.25-34.5-81.83-26.93-86.25-26.11l2.08,13.23" transform="translate(-193.92 -171.95)"/><path class="cls-1" d="M196.9,307a80.29,80.29,0,0,0,4.65,12.12c9.4,20.28,35.2,59.71,95.82,68,3.87.52,3.2-36.16-27.76-62.42-32.48-27.54-69.61-19.65-73-18.87" transform="translate(-193.92 -171.95)"/><path class="cls-8" d="M282.13,384.91c3.86.77,3.1-24.33-14.94-43.93-16.1-17.49-40.27-27.93-65.85-21.34C201.34,319.64,227.49,374.06,282.13,384.91Z" transform="translate(-193.92 -171.95)"/><path class="cls-9" d="M267,380.86c1.34.48,5.6-20.41-14-36.24a53.73,53.73,0,0,0-44.4-10.68C208.21,334.09,227.42,366.77,267,380.86Z" transform="translate(-193.92 -171.95)"/><path class="cls-10" d="M378.75,365.08" transform="translate(-193.92 -171.95)"/><text x="-193.92" y="-171.95"/><text x="-193.92" y="-171.95"/><path class="cls-9" d="M191.33,334.36" transform="translate(-193.92 -171.95)"/><path class="cls-8" d="M173.06,309.59" transform="translate(-193.92 -171.95)"/><path class="cls-1" d="M310.18,408" transform="translate(-193.92 -171.95)"/><path class="cls-1" d="M310.18,387.16s-5.59-.54-10.63-1.14" transform="translate(-193.92 -171.95)"/><path class="cls-11" d="M302.24,381.25a8.86,8.86,0,0,0,.16,1.26,6,6,0,0,0,.15.61,1.94,1.94,0,0,0,.45.85,2.26,2.26,0,0,0,1.63.94,1.9,1.9,0,0,0,1-.05l.59-.25a2.48,2.48,0,0,0,.9-.89l.25-.6a2.5,2.5,0,0,0,0-1.33,4.62,4.62,0,0,1-.18-.82l.09.66c0-.12,0-.25,0-.38a1.84,1.84,0,0,0-.22-1,1.93,1.93,0,0,0-.51-.81,2,2,0,0,0-.81-.52,2,2,0,0,0-1-.21l-.67.09a2.5,2.5,0,0,0-1.1.64l-.39.51a2.43,2.43,0,0,0-.34,1.26Z" transform="translate(-193.92 -171.95)"/><path class="cls-12" d="M302.51,380.8l0,.09-.25-.6a5.33,5.33,0,0,1,.33,1.23l-.09-.66a4.21,4.21,0,0,1,0,.5,2.83,2.83,0,0,0,.73,1.77,2,2,0,0,0,.81.52,1.85,1.85,0,0,0,1,.21l.66-.09a2.48,2.48,0,0,0,1.11-.64l.39-.51a2.53,2.53,0,0,0,.34-1.26,4.21,4.21,0,0,0,0-.5,8.37,8.37,0,0,0-.17-1.1,8.05,8.05,0,0,0-.54-1.49,2.87,2.87,0,0,0-1.5-1.15,1.85,1.85,0,0,0-1,0,1.71,1.71,0,0,0-.93.3l-.51.39a2.5,2.5,0,0,0-.64,1.1l-.09.66a2.44,2.44,0,0,0,.34,1.27Z" transform="translate(-193.92 -171.95)"/><path class="cls-12" d="M302.77,382.87c3.22,0,3.22-5,0-5s-3.22,5,0,5Z" transform="translate(-193.92 -171.95)"/><path class="cls-12" d="M302.77,386.23c3.22,0,3.22-5,0-5s-3.22,5,0,5Z" transform="translate(-193.92 -171.95)"/><path class="cls-12" d="M300,379.06a9,9,0,0,1,.38,3.6.5.5,0,0,0,.5.5.51.51,0,0,0,.5-.5,9.76,9.76,0,0,0-.41-3.87.52.52,0,0,0-.62-.35.52.52,0,0,0-.35.62Z" transform="translate(-193.92 -171.95)"/><path class="cls-12" d="M300.17,380.89c.19,1.3.38,2.78-.38,3.94-.35.54.52,1,.87.5a4.56,4.56,0,0,0,.57-3.65.5.5,0,0,0-1,.26,3.56,3.56,0,0,1-.47,2.89l.87.5c.91-1.4.71-3.14.48-4.7a.5.5,0,0,0-.62-.35.51.51,0,0,0-.35.61Z" transform="translate(-193.92 -171.95)"/><path class="cls-12" d="M300.06,382.36a8.28,8.28,0,0,1-.56,3.37.5.5,0,0,0,1,.26,9.17,9.17,0,0,0,.59-3.63.5.5,0,0,0-1,0Z" transform="translate(-193.92 -171.95)"/><path class="cls-13" d="M310.64,386s-8.67.33-10.65-.16" transform="translate(-193.92 -171.95)"/><path class="cls-12" d="M304.7,380.62l-.49.45a2.51,2.51,0,0,0,.51,3.92,7.66,7.66,0,0,0,2.17.85l.66-4.91h-4.7a2.5,2.5,0,0,0-1.77,4.26,2.6,2.6,0,0,0,1.77.74h4.7a2.55,2.55,0,0,0,1.77-.73,2.63,2.63,0,0,0,.69-1.44,2.39,2.39,0,0,0-.3-1.59,2.48,2.48,0,0,0-1.49-1.15,5.2,5.2,0,0,1-1-.3l.6.25a4.85,4.85,0,0,1-.61-.29l.51,3.92.48-.44a2.49,2.49,0,0,0,0-3.54,2.52,2.52,0,0,0-1.76-.73,2.71,2.71,0,0,0-1.77.73Z" transform="translate(-193.92 -171.95)"/><path class="cls-12" d="M300.94,386a.5.5,0,0,0,0-1,.5.5,0,0,0,0,1Z" transform="translate(-193.92 -171.95)"/><path class="cls-13" d="M398.48,335.17" transform="translate(-193.92 -171.95)"/><path class="cls-7" d="M390.21,345.18" transform="translate(-193.92 -171.95)"/><path class="cls-14" d="M397.78,334.7" transform="translate(-193.92 -171.95)"/><path class="cls-14" d="M390.21,345.18c-.29-.14-1.36,1.79-5.28,5.64,0,0-2.17-2-13.18-3.39" transform="translate(-193.92 -171.95)"/><path class="cls-15" d="M393.84,340.59l-3.11,3.82a43.4,43.4,0,0,0-8.77-3.33" transform="translate(-193.92 -171.95)"/><path class="cls-15" d="M397.78,334.51l-3.79,5s-5.28-3.69-9.63-4.7" transform="translate(-193.92 -171.95)"/><path class="cls-7" d="M311.79,385.08" transform="translate(-193.92 -171.95)"/><polygon class="cls-14" points="125.27 209.3 124.47 213.91 117.87 214.69 117.87 212.56 125.27 209.3"/><path class="cls-14" d="M314.22,379.88l-.16.5a2.5,2.5,0,0,0,0,1.33,1.83,1.83,0,0,0,.44.85,2,2,0,0,0,.7.64,2.44,2.44,0,0,0,1.27.34,3.6,3.6,0,0,0,.36,0l.35-.05h0l.31-.13.3-.13a2.2,2.2,0,0,0,.6-.45l0,0,.4-.52,0-.05,0,0c.08-.17.18-.42.25-.61l0-.06s0-.05,0-.07v0c0-.2.07-.46.09-.67v-.15c0-.11,0-.22,0-.33l-.09.66a.56.56,0,0,1,0-.12l-.26.6.06-.1-.39.5h0a1.85,1.85,0,0,0,.52-.8,2.32,2.32,0,0,0,0-1.93,1.85,1.85,0,0,0-.52-.8l-.51-.39a2.54,2.54,0,0,0-1.26-.35l-.66.09a2.46,2.46,0,0,0-1.1.65,2.94,2.94,0,0,0-.73,1.24s0,.06,0,.09-.08.52-.09.76,0,.27,0,.4l.09-.66a1.21,1.21,0,0,1-.05.18l.25-.6a.53.53,0,0,1-.06.1l.4-.51-.07.07.51-.4-.06,0,.6-.26-.06,0,.66-.09h0l2.41,3.17.16-.5a1.86,1.86,0,0,0,0-1,2.26,2.26,0,0,0-.94-1.63,1.94,1.94,0,0,0-.85-.45l-.67-.09a2.43,2.43,0,0,0-1.26.34l-.5.39a2.52,2.52,0,0,0-.65,1.1Z" transform="translate(-193.92 -171.95)"/><path class="cls-11" d="M318.77,386.42a1.39,1.39,0,0,0,.19.15l.1.07.22.1.12,0a.34.34,0,0,0,.2,0,.32.32,0,0,0,.18-.06.29.29,0,0,0,.14-.13.28.28,0,0,0,.09-.17l0-.13A.45.45,0,0,0,320,386l-.08-.1a.38.38,0,0,0-.22-.13l-.14-.05.12.05a.64.64,0,0,1-.18-.1l.1.07a.27.27,0,0,1-.08-.07.39.39,0,0,0-.16-.1.34.34,0,0,0-.2,0,.33.33,0,0,0-.19,0,.39.39,0,0,0-.16.1l-.08.1a.59.59,0,0,0-.07.26l0,.13a.61.61,0,0,0,.13.22Z" transform="translate(-193.92 -171.95)"/><path class="cls-11" d="M196.82,305.83l.16.61a.32.32,0,0,0,.09.17.33.33,0,0,0,.14.12.53.53,0,0,0,.38,0,.46.46,0,0,0,.3-.23.5.5,0,0,0,.05-.38l-.16-.61a.56.56,0,0,0-.09-.17.35.35,0,0,0-.14-.13.33.33,0,0,0-.19-.06.46.46,0,0,0-.2,0,.51.51,0,0,0-.29.23.48.48,0,0,0-.05.39Z" transform="translate(-193.92 -171.95)"/><path class="cls-9" d="M309.5,398.87" transform="translate(-193.92 -171.95)"/><path class="cls-9" d="M67.36,70" transform="translate(-193.92 -171.95)"/></svg>