<svg width="16" height="18" viewBox="0 0 16 18" fill="none" xmlns="http://www.w3.org/2000/svg">
<path d="M8 17.08C3.58065 17.08 0 13.2577 0 8.54C0 3.82234 3.58065 0 8 0C12.4194 0 16 3.82234 16 8.54C16 13.2577 12.4194 17.08 8 17.08ZM11.7419 7.02484H8V4.58336C8 4.2149 7.58065 4.02895 7.33871 4.29066L3.65161 8.2473C3.5 8.40915 3.5 8.66741 3.65161 8.82926L7.33871 12.7859C7.58387 13.0476 8 12.8617 8 12.4932V10.0552H11.7419C11.9548 10.0552 12.129 9.86921 12.129 9.64194V7.43806C12.129 7.21079 11.9548 7.02484 11.7419 7.02484Z" fill="#766A41" fill-opacity="0.81"/>
</svg>
