<svg width="16" height="18" viewBox="0 0 16 18" fill="none" xmlns="http://www.w3.org/2000/svg">
<path d="M8 0C12.4194 0 16 3.82301 16 8.5415C16 13.26 12.4194 17.083 8 17.083C3.58065 17.083 0 13.26 0 8.5415C0 3.82301 3.58065 0 8 0ZM4.25806 10.0569H8V12.4988C8 12.8674 8.41936 13.0533 8.66129 12.7916L12.3484 8.83426C12.5 8.67238 12.5 8.41407 12.3484 8.2522L8.66129 4.29142C8.41613 4.02966 8 4.21565 8 4.58417V7.02608H4.25806C4.04516 7.02608 3.87097 7.21206 3.87097 7.43937V9.64363C3.87097 9.87095 4.04516 10.0569 4.25806 10.0569Z" fill="#766A41" fill-opacity="0.83"/>
</svg>
