<svg width="25" height="510" viewBox="0 0 25 510" fill="none" xmlns="http://www.w3.org/2000/svg">
<line x1="12.5" y1="13" x2="12.5" y2="490" stroke="#F0DA89" stroke-width="3" stroke-dasharray="12 5"/>
<circle cx="12.5" cy="12.5" r="12.5" fill="#F0DA89"/>
<path d="M13.97 17H12.766V10.014C12.766 9.61267 12.7707 9.29067 12.78 9.048C12.7893 8.80533 12.8033 8.55333 12.822 8.292C12.6727 8.44133 12.5373 8.56733 12.416 8.67C12.2947 8.77267 12.1407 8.90333 11.954 9.062L10.89 9.93L10.246 9.104L12.948 7.004H13.97V17Z" fill="#555252"/>
<circle cx="12.5" cy="103.5" r="12.5" fill="#F0DA89"/>
<path d="M16.28 108H9.672V106.978L12.29 104.332C12.794 103.828 13.2187 103.38 13.564 102.988C13.9093 102.596 14.1707 102.213 14.348 101.84C14.5253 101.457 14.614 101.042 14.614 100.594C14.614 100.043 14.4507 99.628 14.124 99.348C13.7973 99.0587 13.3727 98.914 12.85 98.914C12.3647 98.914 11.9353 98.998 11.562 99.166C11.198 99.334 10.8247 99.5673 10.442 99.866L9.784 99.04C10.176 98.7133 10.624 98.438 11.128 98.214C11.6413 97.9807 12.2153 97.864 12.85 97.864C13.7833 97.864 14.5207 98.102 15.062 98.578C15.6033 99.0447 15.874 99.6933 15.874 100.524C15.874 101.047 15.7667 101.537 15.552 101.994C15.3373 102.451 15.0387 102.904 14.656 103.352C14.2733 103.791 13.8253 104.262 13.312 104.766L11.226 106.824V106.88H16.28V108Z" fill="#555252"/>
<circle cx="12.5" cy="202.5" r="12.5" fill="#F0DA89"/>
<path d="M15.902 200.342C15.902 201.014 15.7153 201.551 15.342 201.952C14.9687 202.344 14.4647 202.605 13.83 202.736V202.792C14.6327 202.885 15.23 203.137 15.622 203.548C16.014 203.959 16.21 204.495 16.21 205.158C16.21 205.737 16.0747 206.255 15.804 206.712C15.5333 207.16 15.1133 207.51 14.544 207.762C13.984 208.014 13.2607 208.14 12.374 208.14C11.8513 208.14 11.366 208.098 10.918 208.014C10.47 207.939 10.0407 207.799 9.63 207.594V206.446C10.05 206.651 10.5027 206.815 10.988 206.936C11.4733 207.048 11.94 207.104 12.388 207.104C13.284 207.104 13.928 206.931 14.32 206.586C14.7213 206.231 14.922 205.746 14.922 205.13C14.922 204.505 14.6747 204.057 14.18 203.786C13.6947 203.506 13.0087 203.366 12.122 203.366H11.156V202.316H12.136C12.9573 202.316 13.578 202.143 13.998 201.798C14.4273 201.453 14.642 200.995 14.642 200.426C14.642 199.941 14.4787 199.567 14.152 199.306C13.8253 199.035 13.382 198.9 12.822 198.9C12.2807 198.9 11.8187 198.979 11.436 199.138C11.0533 199.297 10.6753 199.497 10.302 199.74L9.686 198.9C10.0407 198.62 10.4793 198.377 11.002 198.172C11.534 197.967 12.136 197.864 12.808 197.864C13.8533 197.864 14.628 198.097 15.132 198.564C15.6453 199.031 15.902 199.623 15.902 200.342Z" fill="#555252"/>
<circle cx="12.5" cy="303.5" r="12.5" fill="#F0DA89"/>
<path d="M15.728 305.732H14.272V308H13.082V305.732H8.294V304.682L12.998 297.948H14.272V304.626H15.728V305.732ZM13.082 301.476C13.082 300.991 13.0913 300.58 13.11 300.244C13.1287 299.899 13.1427 299.572 13.152 299.264H13.096C13.0213 299.441 12.928 299.633 12.816 299.838C12.704 300.043 12.5967 300.216 12.494 300.356L9.498 304.626H13.082V301.476Z" fill="#555252"/>
<circle cx="12.5" cy="400.5" r="12.5" fill="#F0DA89"/>
<path d="M12.85 399.868C13.8767 399.868 14.6933 400.125 15.3 400.638C15.9067 401.151 16.21 401.875 16.21 402.808C16.21 403.844 15.8787 404.661 15.216 405.258C14.5627 405.846 13.648 406.14 12.472 406.14C11.9587 406.14 11.4733 406.093 11.016 406C10.568 405.907 10.19 405.771 9.882 405.594V404.432C10.218 404.637 10.624 404.801 11.1 404.922C11.5853 405.034 12.0473 405.09 12.486 405.09C13.2233 405.09 13.816 404.917 14.264 404.572C14.7213 404.217 14.95 403.671 14.95 402.934C14.95 402.281 14.7493 401.781 14.348 401.436C13.9467 401.081 13.312 400.904 12.444 400.904C12.1827 400.904 11.884 400.927 11.548 400.974C11.212 401.021 10.9413 401.067 10.736 401.114L10.12 400.722L10.498 396.004H15.51V397.124H11.548L11.31 400.022C11.4687 399.994 11.6833 399.961 11.954 399.924C12.2247 399.887 12.5233 399.868 12.85 399.868Z" fill="#555252"/>
<circle cx="12.5" cy="497.5" r="12.5" fill="#F0DA89"/>
<path d="M9.77 497.73C9.77 497.011 9.83067 496.307 9.952 495.616C10.0827 494.916 10.3113 494.286 10.638 493.726C10.974 493.157 11.4407 492.704 12.038 492.368C12.6353 492.032 13.4053 491.864 14.348 491.864C14.544 491.864 14.7587 491.873 14.992 491.892C15.2347 491.911 15.4307 491.943 15.58 491.99V493.04C15.412 492.984 15.2207 492.942 15.006 492.914C14.8007 492.886 14.5907 492.872 14.376 492.872C13.732 492.872 13.1953 492.979 12.766 493.194C12.3367 493.409 11.996 493.703 11.744 494.076C11.5013 494.449 11.324 494.879 11.212 495.364C11.1 495.849 11.03 496.367 11.002 496.918H11.086C11.3007 496.591 11.5993 496.316 11.982 496.092C12.3647 495.859 12.8547 495.742 13.452 495.742C14.32 495.742 15.02 496.008 15.552 496.54C16.084 497.063 16.35 497.809 16.35 498.78C16.35 499.825 16.0607 500.647 15.482 501.244C14.9127 501.841 14.1427 502.14 13.172 502.14C12.5373 502.14 11.9633 501.981 11.45 501.664C10.9367 501.347 10.526 500.861 10.218 500.208C9.91933 499.555 9.77 498.729 9.77 497.73ZM13.158 501.104C13.746 501.104 14.222 500.917 14.586 500.544C14.95 500.161 15.132 499.573 15.132 498.78C15.132 498.145 14.9687 497.641 14.642 497.268C14.3247 496.895 13.844 496.708 13.2 496.708C12.7613 496.708 12.3787 496.801 12.052 496.988C11.7253 497.165 11.4687 497.394 11.282 497.674C11.1047 497.954 11.016 498.243 11.016 498.542C11.016 498.943 11.0953 499.345 11.254 499.746C11.4127 500.138 11.6507 500.465 11.968 500.726C12.2853 500.978 12.682 501.104 13.158 501.104Z" fill="#555252"/>
</svg>
