<svg width="19" height="22" viewBox="0 0 19 22" fill="none" xmlns="http://www.w3.org/2000/svg">
<path d="M16.8543 9.15373L17.7307 10.2205C18.1019 10.6721 18.1019 11.4025 17.7307 11.8494L10.0596 21.1905C9.68845 21.6422 9.08834 21.6422 8.72116 21.1905L1.04604 11.8494C0.67492 11.3977 0.67492 10.6673 1.04604 10.2205L1.92252 9.15373C2.29759 8.69724 2.90955 8.70685 3.27672 9.17295L7.80915 14.9631V1.15323C7.80915 0.514146 8.2316 0 8.75669 0H10.0201C10.5452 0 10.9676 0.514146 10.9676 1.15323V14.9631L15.5001 9.17295C15.8672 8.70205 16.4792 8.69244 16.8543 9.15373Z" fill="black"/>
</svg>
